<svg width="20" height="20" viewBox="0 0 20 20" fill="none" xmlns="http://www.w3.org/2000/svg">
<path d="M3.33335 16.6666C2.87502 16.6666 2.4828 16.5035 2.15669 16.1774C1.83058 15.8513 1.66724 15.4588 1.66669 14.9999V4.99992C1.66669 4.54159 1.83002 4.14936 2.15669 3.82325C2.48335 3.49714 2.87558 3.33381 3.33335 3.33325H16.6667C17.125 3.33325 17.5175 3.49659 17.8442 3.82325C18.1709 4.14992 18.3339 4.54214 18.3334 4.99992V14.9999C18.3334 15.4583 18.1703 15.8508 17.8442 16.1774C17.5181 16.5041 17.1256 16.6671 16.6667 16.6666H3.33335ZM10 10.8333L16.6667 6.66659V4.99992L10 9.16659L3.33335 4.99992V6.66659L10 10.8333Z" fill="black"/>
</svg>
