<svg width="20" height="20" viewBox="0 0 20 20" fill="none" xmlns="http://www.w3.org/2000/svg">
<path fill-rule="evenodd" clip-rule="evenodd" d="M4.72666 3.41255C6.12812 2.03161 8.0153 1.25543 9.9828 1.25075C11.9503 1.24608 13.8412 2.01328 15.2492 3.38755H15.2508L15.2775 3.41255C18.2317 6.31838 18.2375 10.9859 15.3125 13.8625L10.5867 18.5109C10.4308 18.6643 10.2208 18.7503 10.0021 18.7503C9.78334 18.7503 9.57338 18.6643 9.41749 18.5109L4.69166 13.8625C3.99785 13.1842 3.44657 12.3741 3.07019 11.4798C2.69382 10.5855 2.49994 9.62493 2.49994 8.65463C2.49994 7.68433 2.69382 6.72381 3.07019 5.82948C3.44657 4.93514 3.99785 4.12503 4.69166 3.44671L4.72666 3.41255ZM9.99999 5.41671C9.67168 5.41671 9.3466 5.48138 9.04328 5.60702C8.73997 5.73265 8.46437 5.9168 8.23222 6.14895C8.00008 6.38109 7.81593 6.65669 7.69029 6.96001C7.56465 7.26332 7.49999 7.58841 7.49999 7.91671C7.49999 8.24502 7.56465 8.57011 7.69029 8.87342C7.81593 9.17674 8.00008 9.45233 8.23222 9.68448C8.46437 9.91663 8.73997 10.1008 9.04328 10.2264C9.3466 10.352 9.67168 10.4167 9.99999 10.4167C10.663 10.4167 11.2989 10.1533 11.7678 9.68448C12.2366 9.21564 12.5 8.57976 12.5 7.91671C12.5 7.25367 12.2366 6.61779 11.7678 6.14895C11.2989 5.68011 10.663 5.41671 9.99999 5.41671Z" fill="black"/>
</svg>
