<svg width="20" height="20" viewBox="0 0 20 20" fill="none" xmlns="http://www.w3.org/2000/svg">
<path d="M13.7967 10.7551L13.4175 11.1326C13.4175 11.1326 12.515 12.0292 10.0525 9.5809C7.59002 7.13256 8.49252 6.2359 8.49252 6.2359L8.73085 5.99756C9.32002 5.41256 9.37585 4.47256 8.86169 3.7859L7.81169 2.3834C7.17502 1.5334 5.94586 1.4209 5.21669 2.1459L3.90836 3.4459C3.54752 3.8059 3.30585 4.2709 3.33502 4.78756C3.41002 6.11006 4.00835 8.95423 7.34502 12.2726C10.8842 15.7909 14.205 15.9309 15.5625 15.8042C15.9925 15.7642 16.3659 15.5459 16.6667 15.2459L17.85 14.0692C18.65 13.2751 18.425 11.9126 17.4017 11.3567L15.81 10.4909C15.1384 10.1267 14.3217 10.2334 13.7967 10.7551Z" fill="black"/>
</svg>
