<svg width="32" height="32" viewBox="0 0 32 32" fill="none" xmlns="http://www.w3.org/2000/svg">
<path d="M2.08002 3.6L12 13.3333V28.5067C12 29.4933 13.04 30.1333 13.92 29.7067L19.2534 27.04C19.7067 26.8 20 26.3467 20 25.84V13.3333L29.92 3.6C30.1027 3.41364 30.2267 3.17775 30.2767 2.92158C30.3266 2.6654 30.3002 2.40021 30.2009 2.15887C30.1015 1.91754 29.9335 1.71067 29.7176 1.56393C29.5018 1.41718 29.2477 1.337 28.9867 1.33334H3.04002C2.77678 1.33179 2.51898 1.4082 2.29909 1.55294C2.07921 1.69767 1.90709 1.90426 1.80443 2.14666C1.70177 2.38905 1.67315 2.65642 1.7222 2.91505C1.77124 3.17369 1.89574 3.41201 2.08002 3.6Z" stroke="black" stroke-width="2"/>
</svg>
